<?xml version="1.0"?>
<svg xmlns="http://www.w3.org/2000/svg" xmlns:xlink="http://www.w3.org/1999/xlink" version="1.1" id="Layer_1" x="0px" y="0px" viewBox="0 0 182.811 182.811" style="enable-background:new 0 0 182.811 182.811;" xml:space="preserve" width="512px" height="512px"><g><g>
	<g>
		<g>
			<path d="M34.746,145.262c-7.665,0-13.898,6.235-13.898,13.898c0,7.663,6.233,13.898,13.898,13.898     c7.665,0,13.898-6.235,13.898-13.898C48.644,151.497,42.411,145.262,34.746,145.262z M34.746,166.109     c-3.831,0-6.949-3.117-6.949-6.949c0-3.832,3.118-6.949,6.949-6.949c3.831,0,6.949,3.117,6.949,6.949     C41.695,162.992,38.577,166.109,34.746,166.109z" data-original="#000000" class="active-path" data-old_color="#c84e42" fill="#c84e42"/>
			<path d="M121.611,145.262c-7.665,0-13.898,6.235-13.898,13.898c0,7.663,6.233,13.898,13.898,13.898     c7.665,0,13.898-6.235,13.898-13.898C135.509,151.497,129.276,145.262,121.611,145.262z M121.611,166.109     c-3.831,0-6.949-3.117-6.949-6.949c0-3.832,3.118-6.949,6.949-6.949s6.949,3.117,6.949,6.949     C128.56,162.992,125.441,166.109,121.611,166.109z" data-original="#000000" class="active-path" data-old_color="#c84e42" fill="#c84e42"/>
			<path d="M179.335,34.075h-24.387c-1.768,0-3.254,1.328-3.454,3.086l-1.216,10.812h-28.843c-1.775-21.367-19.7-38.22-41.519-38.22     c-21.819,0-39.744,16.854-41.519,38.22H3.475c-0.987,0-1.931,0.421-2.589,1.157c-0.658,0.736-0.974,1.719-0.865,2.701     l6.949,62.542c0.183,1.627,1.473,2.906,3.101,3.073l132.387,13.578v4.037H14.849c-1.92,0-3.475,1.556-3.475,3.475     s1.554,3.475,3.475,3.475h131.084c1.92,0,3.475-1.556,3.475-3.475v-10.483l6.19-68.089c0.242-0.41,0.424-0.859,0.481-1.362     l1.975-17.578h21.282c1.92,0,3.475-1.556,3.475-3.475C182.809,35.631,181.255,34.075,179.335,34.075z M79.916,16.702     c19.158,0,34.746,15.586,34.746,34.746c0,19.16-15.588,34.746-34.746,34.746c-19.158,0-34.746-15.586-34.746-34.746     C45.17,32.288,60.758,16.702,79.916,16.702z M142.79,124.074L13.566,110.82L7.357,54.923h31.04     c1.775,21.367,19.7,38.22,41.519,38.22c21.819,0,39.744-16.854,41.519-38.22h27.643L142.79,124.074z" data-original="#000000" class="active-path" data-old_color="#c84e42" fill="#c84e42"/>
			<path d="M75.376,73.391c0.628,0.514,1.408,0.787,2.202,0.787c0.258,0,0.516-0.029,0.774-0.087     c1.045-0.239,1.92-0.947,2.375-1.919l17.621-37.788c0.811-1.741,0.058-3.807-1.68-4.618c-1.737-0.811-3.804-0.058-4.618,1.68     L76.32,65.182L62.713,54.037c-1.49-1.216-3.678-0.998-4.889,0.485c-1.218,1.484-0.998,3.675,0.485,4.889L75.376,73.391z" data-original="#000000" class="active-path" data-old_color="#c84e42" fill="#c84e42"/>
		</g>
	</g>
</g></g> </svg>
