<?xml version="1.0"?>
<svg xmlns="http://www.w3.org/2000/svg" xmlns:xlink="http://www.w3.org/1999/xlink" version="1.1" id="Capa_1" x="0px" y="0px" viewBox="0 0 54 54" style="enable-background:new 0 0 54 54;" xml:space="preserve" width="512px" height="512px" class=""><g><g>
	<path d="M53.707,26.293l-12-12C41.52,14.106,41.265,14,41,14H1c-0.552,0-1,0.448-1,1v24c0,0.552,0.448,1,1,1h40   c0.265,0,0.52-0.105,0.707-0.293l12-12C54.098,27.316,54.098,26.684,53.707,26.293z M40.586,38H2V28h13.243l-3.95,3.95   c-0.391,0.391-0.391,1.023,0,1.414c0.195,0.195,0.451,0.293,0.707,0.293s0.512-0.098,0.707-0.293l5.657-5.657   c0.391-0.391,0.391-1.023,0-1.414l-5.657-5.657c-0.391-0.391-1.023-0.391-1.414,0s-0.391,1.023,0,1.414l3.95,3.95H2V16h38.586   l11,11L40.586,38z" data-original="#000000" class="active-path" data-old_color="#ffffff" fill="#ffffff"/>
</g></g> </svg>
